<?xml version="1.0" encoding="UTF-8"?>
<svg version="1.1" viewBox="0 0 1280 1280" width="1280" height="1280" xmlns="http://www.w3.org/2000/svg">
<path transform="translate(0)" d="m0 0h1280v1280h-1280z" fill="#FDFEFE"/>
<path transform="translate(509,92)" d="m0 0 14 1 14 5 12 8 13 12 11 13 12 17 10 18 8 18 7 21 5 26 2 24v116l-22 6-18 8-16 10-13 11-9 9-10 13-9 16-7 17-4 15-1 5-16 1h-48l-33-1-39-3-20-3-20-5-19-7-17-8-16-10-13-10-14-12-9-10-8-13-4-10-2-12 1-14 5-13 7-11 10-10 10-6 9-3 5-1h15l12 3 12 5 12 8 13 11 17 12 14 8 11 5 13 4 13 2h11l14-2 18-6 16-8 10-7 10-9 9-11 8-14 5-12 4-17 1-10v-12l-3-19-4-12-7-14-8-11-13-15-8-10-8-13-5-13-2-11v-10l2-10 5-12 9-11 12-9 11-5 6-2z" fill="#567DF2"/>
<path transform="translate(759,93)" d="m0 0h18l15 5 10 7 9 8 9 14 4 11 1 5v15l-4 14-6 10-9 10-15 15-10 15-8 18-5 21-1 10v13l2 15 4 15 8 17 11 14 8 8 14 10 16 8 13 4 11 2h27l17-4 15-6 14-9 13-11 7-7 11-8 15-8 16-4h14l12 3 11 6 12 11 7 11 4 10 1 4v18l-4 14-8 14-11 13-8 7-15 12-18 11-16 8-21 8-24 6-26 4-13 1h-113l-6-22-7-16-9-16-9-11-11-12-17-13-21-11-21-7-8-2v-81l1-49 3-24 5-20 8-21 10-20 12-18 10-13 9-10 9-9 13-8 10-4z" fill="#567DF2"/>
<path transform="translate(395,526)" d="m0 0h113l4 17 6 16 9 17 9 12 9 10 8 8 15 11 19 10 21 7 9 2v117l-2 23-4 22-6 20-9 21-8 15-8 12-9 12-9 10-7 8-10 8-16 8-9 2h-14l-12-3-13-7-10-9-6-7-5-10-3-14 1-15 5-16 8-14 13-16 11-13 10-15 6-15 3-17v-21l-3-18-6-18-8-15-12-15-14-11-16-8-15-5-18-3h-16l-18 3-19 7-15 9-13 11-7 7-12 9-16 8-9 3-7 1h-10l-14-3-11-6-11-10-7-10-5-12-1-4v-20l5-15 9-14 9-10 12-11 18-13 18-10 21-9 19-6 24-5 15-2z" fill="#567DF2"/>
<path transform="translate(773,526)" d="m0 0h94l34 2 25 3 24 6 21 8 21 11 12 8 13 10 7 6 7 8 9 12 7 14 3 13v12l-3 12-6 11-10 11-11 8-11 5-9 2h-12l-12-3-14-7-10-8-12-11-14-11-15-9-14-6-12-3-7-1h-20l-19 4-15 6-15 8-10 8-12 12-9 14-6 13-4 13-2 13v19l3 17 6 17 9 16 12 14 13 14 9 14 5 13 1 5v18l-4 12-7 11-12 12-11 7-9 4-9 2h-10l-12-3-12-6-10-9-8-7-9-10-13-17-12-20-8-18-6-18-4-18-2-15-1-20-1-39v-79l22-6 16-7 15-9 14-11 10-10 10-13 10-17 6-15 4-13z" fill="#567DF2"/>
<path transform="translate(407,201)" d="m0 0h12l17 3 15 6 13 9 10 10 8 12 6 16 2 11v15l-3 15-5 13-7 11-11 12-10 8-15 7-11 3-7 1h-12l-16-3-12-5-10-6-11-9-9-11-8-15-4-15-1-17 2-14 4-12 7-13 11-13 11-8 12-6 15-4z" fill="#7E9BF7"/>
<path transform="translate(630,428)" d="m0 0h21l16 4 15 8 11 9 9 10 7 12 5 14 2 12v15l-3 15-5 12-6 10-9 10-8 7-12 7-15 5-5 1h-25l-15-4-16-8-11-9-9-11-8-16-4-17v-20l4-16 8-16 8-10 7-7 14-9 12-5z" fill="#7E9BF7"/>
<path transform="translate(857,201)" d="m0 0h20l16 4 14 7 9 7 6 5 10 13 6 13 4 14 1 18-3 17-6 15-9 13-9 9-14 9-13 5-9 2-14 1-17-2-15-5-13-8-10-9-8-10-7-14-4-16v-23l4-16 7-14 8-10 8-8 14-9 11-5z" fill="#7E9BF7"/>
<path transform="translate(410,654)" d="m0 0h10l16 3 15 6 14 10 7 7 7 10 6 12 4 15 1 9v9l-2 14-4 12-7 13-8 10-9 8-15 8-13 4-6 1h-23l-16-4-16-8-10-8-9-10-9-17-4-16v-23l4-16 7-14 8-10 8-8 14-9 16-6z" fill="#7E9BF7"/>
<path transform="translate(867,654)" d="m0 0 15 1 15 4 14 7 11 9 8 10 8 15 4 14 1 8v12l-3 16-5 12-6 11-11 12-9 8-17 9-11 3-7 1h-15l-14-3-14-6-14-10-8-8-9-14-5-11-3-13v-23l4-16 7-14 8-10 7-7 14-9 14-5 9-2z" fill="#7E9BF7"/>
<path transform="translate(321,1063)" d="m0 0h18l10 3 9 5 7 6 7 11 4 12 1 6v22l-4 15-6 11-5 6-9 6-9 4-4 1h-20l-10-3-10-6-7-7-6-10-4-13-1-7v-17l3-14 7-14 9-9 12-6z" fill="#567DF2"/>
<path transform="translate(862,227)" d="m0 0h11l14 3 10 5 10 9 6 10 3 8 1 5v17l-3 11-6 12-11 11-13 7-8 2h-17l-12-4-11-7-9-9-7-12-3-11v-16l4-13 7-11 9-8 12-6z" fill="#FDFEFE"/>
<path transform="translate(406,680)" d="m0 0h17l13 4 9 5 8 7 6 9 4 11 1 5v16l-4 13-4 8-9 10-8 6-12 5-6 1h-12l-12-3-11-6-10-9-7-10-4-10-1-4v-18l4-12 7-11 7-7 10-6 9-3z" fill="#FDFEFE"/>
<path transform="translate(859,680)" d="m0 0h17l10 3 11 6 6 5 8 11 5 12 1 5v18l-4 13-6 9-9 9-12 6-13 3h-11l-16-4-10-6-7-6-7-10-4-10-1-5v-15l3-11 5-10 9-10 9-7 12-5z" fill="#FDFEFE"/>
<path transform="translate(413,226)" d="m0 0 15 2 10 4 9 7 8 8 7 14 2 8v18l-3 10-6 11-8 8-10 6-13 4h-19l-11-3-10-5-8-7-6-9-4-9-2-8v-14l3-12 6-11 9-10 13-8 10-3z" fill="#FDFEFE"/>
<path transform="translate(434,1088)" d="m0 0h14l8 4 7 8 9-8 9-4h13l7 3 5 4 5 10 1 4v60h-23l-1-50-2-9-10-1-7 4-3 3-1 53h-23l-1-51-3-8-2-1h-7l-7 4-2 2-1 54h-24v-79h19l3 9 8-7z" fill="#567DF2"/>
<path transform="translate(803,1088)" d="m0 0h16l9 3 8 6 5 9 2 9v54h-19l-3-7-8 6-8 3h-13l-9-4-6-7-2-5v-15l4-7 8-7 13-5 16-3h3l-3-8-3-2h-13l-12 5h-3l-8-15 14-7z" fill="#7E9BF7"/>
<path transform="translate(959,1088)" d="m0 0h15l9 3 8 6 6 10 3 11v16l-1 3h-47l4 9 5 4 5 2h13l9-4h2l7 13v2l-12 6-8 2h-17l-11-4-9-6-6-8-4-9-1-4v-20l4-12 6-8 9-8z" fill="#7E9BF7"/>
<path transform="translate(572,1088)" d="m0 0h14l9 4 6 8 3 10v59h-24l-1-54-3-5-2-1h-7l-6 3-4 3-1 54h-24v-79h20l2 9 9-7z" fill="#567DF2"/>
<path transform="translate(702,1065)" d="m0 0h66v20h-42v24h36v20h-36v40h-24z" fill="#7E9BF7"/>
<path transform="translate(892,1088)" d="m0 0h15l11 4 5 5-10 14-4-1-4-2h-9l-7 4-4 6-2 9 1 11 4 8 5 4 3 1h9l10-5 9 15-5 5-9 4-4 1h-17l-11-4-6-4-7-7-5-11-2-9v-12l3-12 6-10 9-8 11-5z" fill="#7E9BF7"/>
<path transform="translate(328,1083)" d="m0 0 9 1 6 4 5 6 4 10 1 7v12l-3 13-6 9-5 4-6 2-10-1-7-4-4-5-4-9-2-14 1-13 4-11 6-7 6-3z" fill="#FDFEFE"/>
<path transform="translate(624,1090)" d="m0 0h24v79h-24z" fill="#577EF2"/>
<path transform="translate(634,1053)" d="m0 0 8 1 6 5 2 8-3 7-6 4h-10l-6-4-3-5v-7l4-6z" fill="#577DF2"/>
<path transform="translate(962,1106)" d="m0 0h9l5 3 3 4 1 8h-29l3-9 6-5z" fill="#FDFEFE"/>
<path transform="translate(813,1133)" d="m0 0h6v14l-6 5-3 1h-7l-5-3-1-7 5-6z" fill="#FDFEFE"/>
</svg>
